<?xml version="1.0" standalone="no"?>
<!DOCTYPE svg PUBLIC "-//W3C//DTD SVG 20010904//EN"
 "http://www.w3.org/TR/2001/REC-SVG-20010904/DTD/svg10.dtd">
<svg version="1.0" xmlns="http://www.w3.org/2000/svg"
 width="70.000000pt" height="70.000000pt" viewBox="0 0 70.000000 70.000000"
 preserveAspectRatio="xMidYMid meet">
<metadata>
Created by potrace 1.14, written by Peter Selinger 2001-2017
</metadata>
<g transform="translate(0.000000,70.000000) scale(0.100000,-0.100000)"
fill="#000000" stroke="none">
<path d="M102 620 c-36 -8 -54 -20 -31 -20 8 0 43 -13 78 -29 l63 -28 69 30
c67 30 82 42 57 45 -48 7 -209 8 -236 2z"/>
<path d="M549 613 c0 -10 -1 -110 -1 -223 0 -237 -5 -254 -66 -248 -34 3 -37
1 -43 -32 -4 -19 -5 -38 -3 -42 8 -12 113 -9 137 4 61 32 67 62 67 329 l0 229
-45 0 c-36 0 -45 -4 -46 -17z"/>
<path d="M60 584 c0 -3 12 -29 28 -58 l27 -53 38 25 c21 14 34 29 30 33 -11
10 -123 59 -123 53z"/>
<path d="M292 559 l-64 -29 30 -25 c28 -23 64 -34 60 -17 -1 4 8 27 21 50 12
24 21 45 19 47 -2 2 -32 -10 -66 -26z"/>
<path d="M191 492 c-12 -23 -2 -38 26 -39 28 -2 39 28 17 44 -24 17 -32 16
-43 -5z"/>
<path d="M202 431 c-6 -3 -22 -72 -36 -151 l-24 -145 36 -38 36 -37 37 36 c21
20 36 44 34 53 -1 9 -10 62 -20 118 -9 56 -18 110 -20 120 -2 10 -4 23 -4 29
-1 15 -25 24 -39 15z"/>
</g>
</svg>
